<svg xmlns="http://www.w3.org/2000/svg" style="display: none;">
  <!-- Game Item Icons - Modern SVG replacements for pygame assets -->
  
  <!-- Grinch/Steal -->
  <symbol id="grinch" viewBox="0 0 24 24">
    <path fill="#dc2626" d="M12 2C9.23 2 7 4.23 7 7c0 1.19.41 2.28 1.09 3.15L12 14l3.91-3.85C16.59 9.28 17 8.19 17 7c0-2.77-2.23-5-5-5zm0 7.5c-1.38 0-2.5-1.12-2.5-2.5s1.12-2.5 2.5-2.5 2.5 1.12 2.5 2.5-1.12 2.5-2.5 2.5z"/>
    <path fill="#991b1b" d="M7 16h10v2H7z"/>
  </symbol>
  
  <!-- Present/Gift -->
  <symbol id="present" viewBox="0 0 24 24">
    <rect x="5" y="8" width="14" height="12" fill="#dc2626" rx="1"/>
    <rect x="5" y="8" width="14" height="4" fill="#fbbf24" rx="1"/>
    <path d="M12 2v18M8 8V4c0-1.1.9-2 2-2s2 .9 2 2v4M16 8V4c0-1.1-.9-2-2-2s-2 .9-2 2v4" stroke="#fbbf24" stroke-width="2" fill="none"/>
  </symbol>
  
  <!-- Tree/Choose -->
  <symbol id="tree" viewBox="0 0 24 24">
    <polygon points="12,2 8,8 16,8" fill="#059669"/>
    <polygon points="12,6 7,12 17,12" fill="#047857"/>
    <polygon points="12,10 6,16 18,16" fill="#065f46"/>
    <rect x="10" y="16" width="4" height="6" fill="#92400e"/>
  </symbol>
  
  <!-- Elf/Shield -->
  <symbol id="elf" viewBox="0 0 24 24">
    <circle cx="12" cy="8" r="3" fill="#fbbf24"/>
    <path d="M8 7c0-1 1-3 4-3s4 2 4 3" fill="#f59e0b"/>
    <rect x="9" y="12" width="6" height="8" fill="#059669" rx="3"/>
    <circle cx="10" cy="9" r="0.5" fill="#000"/>
    <circle cx="14" cy="9" r="0.5" fill="#000"/>
  </symbol>
  
  <!-- Bauble/Reflect -->
  <symbol id="bauble" viewBox="0 0 24 24">
    <circle cx="12" cy="13" r="8" fill="#7c3aed"/>
    <circle cx="12" cy="13" r="6" fill="#8b5cf6" opacity="0.8"/>
    <circle cx="10" cy="11" r="1.5" fill="#c4b5fd" opacity="0.6"/>
    <rect x="11" y="3" width="2" height="4" fill="#92400e"/>
  </symbol>
  
  <!-- Turkey/Reset -->
  <symbol id="turkey" viewBox="0 0 24 24">
    <ellipse cx="12" cy="14" rx="6" ry="4" fill="#92400e"/>
    <circle cx="12" cy="10" r="3" fill="#b45309"/>
    <path d="M12 7v-2M10 8l-1-1M14 8l1-1" stroke="#dc2626" stroke-width="2"/>
    <circle cx="11" cy="9" r="0.5" fill="#000"/>
    <circle cx="13" cy="9" r="0.5" fill="#000"/>
  </symbol>
  
  <!-- Cracker/Double -->
  <symbol id="cracker" viewBox="0 0 24 24">
    <rect x="6" y="10" width="12" height="4" fill="#dc2626" rx="2"/>
    <rect x="8" y="11" width="8" height="2" fill="#fbbf24"/>
    <path d="M6 12l-2-1v2l2-1zM18 12l2-1v2l-2-1z" fill="#fbbf24"/>
    <circle cx="10" cy="12" r="0.5" fill="#fff"/>
    <circle cx="14" cy="12" r="0.5" fill="#fff"/>
  </symbol>
  
  <!-- Bank/Safe -->
  <symbol id="bank" viewBox="0 0 24 24">
    <rect x="4" y="6" width="16" height="14" fill="#374151" rx="2"/>
    <rect x="5" y="7" width="14" height="12" fill="#4b5563" rx="1"/>
    <circle cx="15" cy="13" r="3" fill="#6b7280"/>
    <circle cx="15" cy="13" r="2" fill="#374151"/>
    <rect x="14" y="12" width="2" height="2" fill="#fbbf24"/>
  </symbol>
  
  <!-- Pudding/Kill -->
  <symbol id="pudding" viewBox="0 0 24 24">
    <ellipse cx="12" cy="16" rx="7" ry="4" fill="#92400e"/>
    <ellipse cx="12" cy="13" rx="6" ry="5" fill="#b45309"/>
    <ellipse cx="12" cy="10" rx="4" ry="3" fill="#d97706"/>
    <circle cx="10" cy="9" r="0.5" fill="#dc2626"/>
    <circle cx="14" cy="9" r="0.5" fill="#dc2626"/>
  </symbol>
  
  <!-- Snowball/Wipe -->
  <symbol id="snowball" viewBox="0 0 24 24">
    <circle cx="12" cy="12" r="8" fill="#f3f4f6"/>
    <circle cx="12" cy="12" r="6" fill="#e5e7eb"/>
    <circle cx="10" cy="10" r="1" fill="#d1d5db"/>
    <circle cx="15" cy="11" r="0.8" fill="#d1d5db"/>
    <circle cx="13" cy="14" r="1.2" fill="#d1d5db"/>
  </symbol>
  
  <!-- Mistletoe/Swap -->
  <symbol id="mistletoe" viewBox="0 0 24 24">
    <ellipse cx="10" cy="8" rx="3" ry="2" fill="#059669"/>
    <ellipse cx="14" cy="8" rx="3" ry="2" fill="#059669"/>
    <ellipse cx="12" cy="12" rx="2.5" ry="1.5" fill="#047857"/>
    <circle cx="12" cy="16" r="1.5" fill="#dc2626"/>
    <circle cx="10" cy="17" r="1" fill="#dc2626"/>
    <circle cx="14" cy="17" r="1" fill="#dc2626"/>
  </symbol>
</svg>